<svg class="benefit-img" xmlns="http://www.w3.org/2000/svg" xmlns:xlink="http://www.w3.org/1999/xlink" x="0px" y="0px"
	 viewBox="0 0 64.7 66.5" style="enable-background:new 0 0 64.7 66.5;" xml:space="preserve">
<path d="M61.1,23.2H36.3c1.1-3.5,2.9-6.6,5.4-9.2c4.2-4.3,10.1-6.4,18.2-6.4c1,0,1.8-0.8,1.8-1.8S60.9,4,59.9,4
	c-9.1,0-15.8,2.4-20.7,7.5c-3.1,3.3-5.4,7.4-6.5,11.7h-8.2L20.9,19c-0.3-0.4-0.9-0.7-1.4-0.7h-16c-1,0-1.8,0.8-1.8,1.8v40.7
	c0,1,0.8,1.8,1.8,1.8l0,0H61c1,0,1.8-0.8,1.8-1.8l0,0v-36C62.8,23.9,62.1,23.2,61.1,23.2z M30.5,37.3L24,30.7
	c-0.7-0.7-1.8-0.7-2.5,0C21.2,31,21,31.5,21,32s0.2,0.9,0.5,1.3l9.6,9.6c0.7,0.7,1.8,0.7,2.5,0l9.6-9.6c0.7-0.7,0.7-1.8,0-2.5
	s-1.8-0.7-2.5,0l0,0l-6.5,6.5c0.1-3.5,0.5-7,1.2-10.5h24.1V59h-54V21.8h13.3l3.4,4.2c0.3,0.4,0.8,0.7,1.4,0.7h8.2
	C31,30.2,30.6,33.7,30.5,37.3L30.5,37.3z"/>
</svg>
