<svg class="benefit-img" xmlns="http://www.w3.org/2000/svg" xmlns:xlink="http://www.w3.org/1999/xlink" x="0px" y="0px"
	 viewBox="0 0 64.7 66.5" style="enable-background:new 0 0 64.7 66.5;" xml:space="preserve">
<path d="M60.5,31.8c-1.1-1-2.5-1.6-4-1.6l0,0c-1.5,0-2.9,0.6-4,1.7L44.4,40h-2.6c0-0.2,0-0.4,0-0.6
	c0-3.1-2.6-5.7-5.7-5.7H15.8L2.4,47.1v16h8.8l7.3-7.3h26.2L60.6,40c1.1-1.1,1.7-2.6,1.7-4.1C62.3,34.3,61.6,32.8,60.5,31.8z
	 M58.1,37.5L43.2,52.4H17l-7.3,7.3H5.9V48.6l11.4-11.4h19c1.2,0.1,2.1,1.1,2,2.3c-0.1,1.1-0.9,1.9-2,2H22.4V45h13.9
	c1.4,0,2.8-0.6,3.9-1.6h5.7l9.1-9.1c0.9-0.8,2.2-0.8,3.1,0c0.4,0.4,0.7,1,0.7,1.6C58.7,36.5,58.5,37.1,58.1,37.5z"/>
<path d="M32.3,29.5l12.1-12.1c3-3.5,2.7-8.7-0.8-11.7c-3.1-2.8-7.9-2.8-11,0L32.3,6l-0.4-0.3C28.3,2.8,23.1,3.4,20.2,7
	c-2.5,3.1-2.4,7.4,0,10.5L32.3,29.5z M22.7,8.2c0.9-0.9,2.1-1.4,3.4-1.4s2.5,0.5,3.4,1.4l2.8,2.8L35,8.2c1.9-1.9,4.9-1.9,6.8,0
	s1.9,4.9,0,6.8l-9.6,9.6L22.7,15C20.8,13.1,20.8,10.1,22.7,8.2L22.7,8.2z"/>
</svg>
