<svg class="benefit-img" xmlns="http://www.w3.org/2000/svg" xmlns:xlink="http://www.w3.org/1999/xlink" x="0px" y="0px"
	 viewBox="0 0 64.7 66.5" style="enable-background:new 0 0 64.7 66.5;" xml:space="preserve">
<path d="M59.9,6.4H47.7v-3c0.1-0.9-0.6-1.6-1.4-1.7c-0.9-0.1-1.6,0.6-1.7,1.4c0,0.1,0,0.2,0,0.3v3H20.1v-3
	c0.1-0.9-0.6-1.6-1.4-1.7c-0.9-0.1-1.6,0.6-1.7,1.4c0,0.1,0,0.2,0,0.3v3H4.7C3.9,6.4,3.2,7.1,3.2,8v55.2c0,0.9,0.7,1.5,1.5,1.5h55.2
	c0.9,0,1.6-0.7,1.6-1.5V8C61.5,7.1,60.8,6.4,59.9,6.4L59.9,6.4z M18.5,14.1c0.9,0,1.6-0.7,1.6-1.6v-3h24.5v3
	c-0.1,0.9,0.6,1.6,1.4,1.7c0.9,0.1,1.6-0.6,1.7-1.4c0-0.1,0-0.2,0-0.3v-3h10.7v52.1h-52V9.5H17v3C17,13.4,17.7,14.1,18.5,14.1
	L18.5,14.1z"/>
<circle cx="13.9" cy="24.1" r="2.7"/>
<path d="M23.1,26.7c1.5,0,2.7-1.2,2.7-2.7s-1.2-2.7-2.7-2.7s-2.7,1.2-2.7,2.7S21.6,26.7,23.1,26.7L23.1,26.7z"/>
<path d="M32.3,26.7c1.5,0,2.7-1.2,2.7-2.7s-1.2-2.7-2.7-2.7s-2.7,1.2-2.7,2.7S30.8,26.7,32.3,26.7L32.3,26.7z"/>
<circle cx="13.9" cy="33.3" r="2.7"/>
<path d="M23.1,36c1.5,0,2.7-1.2,2.7-2.7s-1.2-2.7-2.7-2.7s-2.7,1.2-2.7,2.7l0,0C20.4,34.7,21.6,36,23.1,36z"/>
<path d="M32.3,36c1.5,0,2.7-1.2,2.7-2.7s-1.2-2.7-2.7-2.7s-2.7,1.2-2.7,2.7l0,0C29.6,34.7,30.8,36,32.3,36z"/>
<path d="M41.5,26.7c1.5,0,2.7-1.2,2.7-2.7s-1.2-2.7-2.7-2.7s-2.7,1.2-2.7,2.7l0,0C38.8,25.5,40,26.7,41.5,26.7z"/>
<path d="M41.5,36c1.5,0,2.7-1.2,2.7-2.7s-1.2-2.7-2.7-2.7s-2.7,1.2-2.7,2.7l0,0C38.8,34.7,40,36,41.5,36z"/>
<path d="M50.7,26.7c1.5,0,2.7-1.2,2.7-2.7s-1.2-2.7-2.7-2.7S48,22.5,48,24l0,0C48,25.5,49.2,26.7,50.7,26.7z"/>
<path d="M50.7,36c1.5,0,2.7-1.2,2.7-2.7s-1.2-2.7-2.7-2.7S48,31.8,48,33.3l0,0C48,34.7,49.2,36,50.7,36z"/>
<path d="M13.9,39.8c-1.5,0-2.7,1.2-2.7,2.7s1.2,2.7,2.7,2.7s2.7-1.2,2.7-2.7l0,0C16.6,41,15.4,39.8,13.9,39.8z"/>
<path d="M23.1,45.2c1.5,0,2.7-1.2,2.7-2.7s-1.2-2.7-2.7-2.7s-2.7,1.2-2.7,2.7l0,0C20.5,43.9,21.6,45.1,23.1,45.2z"/>
<path d="M32.3,45.2c1.5,0,2.7-1.2,2.7-2.7s-1.2-2.7-2.7-2.7s-2.7,1.2-2.7,2.7l0,0C29.7,43.9,30.8,45.1,32.3,45.2z"/>
<path d="M41.5,45.2c1.5,0,2.7-1.2,2.7-2.7s-1.2-2.7-2.7-2.7s-2.7,1.2-2.7,2.7l0,0C38.9,43.9,40.1,45.1,41.5,45.2z"/>
<path d="M50.7,45.2c1.5,0,2.7-1.2,2.7-2.7s-1.2-2.7-2.7-2.7S48,41,48,42.5l0,0C48,44,49.2,45.2,50.7,45.2z"/>
<path d="M32.3,54.3c1.5,0,2.7-1.2,2.7-2.7s-1.2-2.7-2.7-2.7s-2.7,1.2-2.7,2.7l0,0C29.6,53.1,30.8,54.3,32.3,54.3z"/>
<path d="M41.5,54.3c1.5,0,2.7-1.2,2.7-2.7S43,49,41.5,49s-2.7,1.2-2.7,2.7l0,0C38.8,53.1,40,54.3,41.5,54.3z"/>
<path d="M23.1,54.3c1.5,0,2.7-1.2,2.7-2.7s-1.2-2.7-2.7-2.7s-2.7,1.2-2.7,2.7l0,0C20.4,53.1,21.6,54.3,23.1,54.3z"/>
<circle cx="13.9" cy="51.7" r="2.7"/>
</svg>
