<svg class="benefit-img" xmlns="http://www.w3.org/2000/svg" xmlns:xlink="http://www.w3.org/1999/xlink" x="0px" y="0px"
	 viewBox="0 0 64.7 66.5" style="enable-background:new 0 0 64.7 66.5;" xml:space="preserve">
<path d="M60,33.5v-8.6c0-2.9-2.2-5.3-5.1-5.5L47,5.6c-0.8-1.3-2-2.2-3.4-2.6s-2.9-0.2-4.2,0.6L12.2,19.4H7.4
	c-3.1,0-5.5,2.5-5.5,5.5v33.2c0,3.1,2.5,5.5,5.5,5.5h47.1c3.1,0,5.5-2.5,5.5-5.5v-8.6c1.7-0.6,2.8-2.1,2.8-3.9v-8.3
	C62.8,35.7,61.7,34.1,60,33.5z M51.7,19.4h-12l9.1-5.3L51.7,19.4z M47.3,11.7l-13.2,7.7h-5.5l17.3-10L47.3,11.7z M40.8,5.9
	c0.6-0.4,1.4-0.5,2.1-0.3c0.7,0.2,1.3,0.7,1.7,1.3l0,0L23.2,19.4h-5.5L40.8,5.9z M57.2,58.2c0,1.5-1.2,2.8-2.8,2.8l0,0h-47
	c-1.5,0-2.8-1.2-2.8-2.8l0,0V24.9c0-1.5,1.2-2.8,2.8-2.8h47.1c1.5,0,2.8,1.2,2.8,2.8l0,0v8.3H49c-4.6-0.2-8.4,3.4-8.6,8
	c-0.2,4.6,3.4,8.4,8,8.6c0.2,0,0.4,0,0.7,0h8.3v8.4H57.2z M60,45.7c0,0.8-0.6,1.4-1.4,1.4h-9.7c-3.1,0.1-5.7-2.2-5.8-5.3
	s2.2-5.7,5.3-5.8c0.2,0,0.4,0,0.5,0h9.7c0.8,0,1.4,0.6,1.4,1.4V45.7z"/>
<path d="M48.9,38.8c-1.5,0-2.8,1.2-2.8,2.8c0,1.5,1.2,2.8,2.8,2.8c1.5,0,2.8-1.2,2.8-2.8l0,0
	C51.7,40,50.5,38.8,48.9,38.8z"/>
</svg>
