<svg class="benefit-img" xmlns="http://www.w3.org/2000/svg" xmlns:xlink="http://www.w3.org/1999/xlink" x="0px" y="0px"
	 viewBox="0 0 64.7 66.5" style="enable-background:new 0 0 64.7 66.5;" xml:space="preserve">
<path d="M53.8,48c0,0.7,0.6,1.2,1.2,1.2c0.7,0,1.2-0.6,1.2-1.2c0-0.7-0.6-1.2-1.2-1.2l0,0C54.3,46.8,53.8,47.3,53.8,48z
	"/>
<path d="M55,31.3h-6.3V3.1c0-0.7-0.5-1.2-1.2-1.2l0,0H24.9c-0.7,0-1.2,0.5-1.2,1.2c0,0.3,0.1,0.6,0.4,0.9l6.5,6.5
	L24,16.9c-0.5,0.5-0.5,1.2,0,1.7c0.2,0.2,0.5,0.4,0.9,0.4h21.4v12.3h-6.4c-0.7,0-1.2,0.5-1.2,1.2v6.9h-14c-0.7,0-1.2,0.5-1.2,1.2
	l0,0v6.1H9.7c-0.7,0-1.2,0.5-1.2,1.2v16.7H55c0.7,0,1.2-0.5,1.2-1.2v-10c0-0.7-0.5-1.2-1.2-1.2s-1.2,0.5-1.2,1.2l0,0v8.7H41.1V33.7
	h12.7v8.7c0,0.7,0.5,1.2,1.2,1.2s1.2-0.5,1.2-1.2v-9.9C56.3,31.8,55.7,31.3,55,31.3L55,31.3z M23.4,62.2H10.9v-13h12.5V62.2z
	 M38.6,62.2H25.9V41.8h12.7V62.2z M46.2,16.5H27.8l5.3-5.3c0.5-0.5,0.5-1.3,0-1.7l-5.3-5.3h18.4C46.2,4.2,46.2,16.5,46.2,16.5z"/>
</svg>
