<svg class="paper-airplane" xmlns="http://www.w3.org/2000/svg" xmlns:xlink="http://www.w3.org/1999/xlink" x="0px" y="0px"
	 viewBox="0 0 69.3 65.4" style="enable-background:new 0 0 69.3 65.4;" xml:space="preserve">
<path style="fill:#ffffff" d="M68.5,61.3c-0.3-0.6-0.6-1.2-1.3-1.5c-3.2-1.7-7.6-2.2-11.4-2.5c-2.1,0-4.1-0.4-6.1-1c-1-0.5-2.5-2.7-3.5-5.9
	c-0.5-1.5-0.8-3.2-0.6-4.9c3.4-4.8,5.7-10.2,7.1-15.9c2.5-10.1,1.4-17.8-2.8-23c-5.4-6.6-14.3-6.3-15.2-6.3s-9.8-0.3-15.4,6.3
	c-4.4,5.2-5.3,12.9-2.8,23c1.4,5.7,3.7,11.2,7.1,16.1c0.3,1.7,0,3.2-0.5,4.8c-0.9,3.2-2.5,5.4-3.5,5.9c-1.9,0.6-4,0.9-6.1,1
	c-3.7,0.4-8.1,0.6-11.4,2.5c-0.6,0.3-1,0.9-1.3,1.5c-0.3,0.6-0.1,1.3,0.3,1.9c0.4,0.8,1.3,1.4,2.2,1.4c0.4,0,0.8-0.1,1.2-0.3
	c2.5-1.3,6.2-1.5,9.4-1.8s5.9-0.5,7.9-1.5c3.2-1.7,5.4-6.2,6.3-9.9c0.5-2.2,1.2-6.1-0.4-8.4c-2.8-4.4-5-9.3-6.2-14.3
	c-1.9-8.5-1.3-14.7,1.9-18.6c4-4.8,11.1-4.5,11.4-4.5h0.3c0,0,7.1-0.3,11.1,4.5c3.2,3.9,3.9,10.1,1.8,18.4c-1.3,5-3.4,9.8-6.3,14.1
	c-1.7,2.2-0.9,6.2-0.4,8.5c0.4,1.8,2.2,8,6.3,9.9c2.6,0.9,5.2,1.4,7.9,1.5c3.4,0.3,7.1,0.6,9.4,1.9c1.3,0.6,2.8,0.1,3.5-1.2
	C68.6,62.6,68.6,62,68.5,61.3z"/>
</svg>
