<svg class="benefit-img" xmlns="http://www.w3.org/2000/svg" xmlns:xlink="http://www.w3.org/1999/xlink" x="0px" y="0px"
	 viewBox="0 0 64.7 66.5" style="enable-background:new 0 0 64.7 66.5;" xml:space="preserve">
<path d="M53.7,22.1c-0.5-2.1-1.3-4-2.4-5.9l1.9-3.2l-5.4-5.4l-3.2,1.9c-1.8-1.1-3.8-1.9-5.9-2.4l-0.9-3.6h-7.7l-0.9,3.6
	C26.5,7.8,24,9,21.8,10.7V1.5h-8.1v50.8H7.4l10.3,12.8L28,52.3h-6.2v-9.2c2.2,1.7,4.7,2.9,7.4,3.5l0.9,3.6h7.7l0.9-3.6
	c2.1-0.5,4-1.3,5.9-2.4l3.2,1.9l5.4-5.4l-1.9-3.2c1.1-1.8,1.9-3.8,2.4-5.8l3.6-0.9V23L53.7,22.1z M15.6,3.4h4.1v8.9
	C18,14,16.6,15.9,15.6,18V3.4z M55.3,29.1L52,29.9l-0.1,0.6c-0.5,2.3-1.4,4.4-2.6,6.3l-0.4,0.5l1.8,2.9l-3.2,3.2l-2.9-1.8L44.1,42
	c-1.9,1.3-4.1,2.2-6.3,2.6L37,44.9l-0.8,3.3h-4.5l-0.9-3.3l-0.6-0.1c-3.2-0.7-6.1-2.1-8.5-4.3v-6.3c4,6.7,12.8,8.9,19.5,4.9
	s8.9-12.8,4.9-19.5s-12.8-8.9-19.5-4.9c-4.3,2.6-6.9,7.2-6.9,12.2v27.5h3.9l-6,7.5l-6-7.5h3.9V26.8c0-8.7,6.2-16.2,14.7-17.9
	l0.6-0.1l0.8-3.3h4.5L37,8.8l0.6,0.1c2.3,0.5,4.4,1.4,6.3,2.6l0.5,0.4l2.9-1.7l3.2,3.2l-1.8,2.9l0.4,0.5c1.3,1.9,2.2,4.1,2.6,6.3
	l0.1,0.6l3.3,0.8L55.3,29.1z M21.7,26.8c0-6.7,5.5-12.2,12.2-12.2s12.2,5.5,12.2,12.2S40.6,39,33.9,39l0,0
	C27.2,39,21.7,33.6,21.7,26.8z"/>
<path d="M26.4,24.2l-1.9-0.7c-0.3,0.7-0.5,1.4-0.6,2.2l2,0.3C26,25.3,26.2,24.7,26.4,24.2z"/>
<path d="M25.8,27.7l-2,0.1c0,0.8,0.2,1.5,0.4,2.2l2-0.6C26,28.9,25.9,28.3,25.8,27.7z"/>
<path d="M27.9,32.6c-0.4-0.5-0.8-0.9-1-1.5l-1.8,1c0.4,0.7,0.8,1.3,1.3,1.8L27.9,32.6z"/>
<path d="M34,30.3c0.5,0,0.9-0.1,1.3-0.3l3.1,3.1l1.4-1.5l-3.1-3.1c0.2-0.4,0.3-0.9,0.3-1.3c0-1.3-0.8-2.4-2-2.9V17h-2
	v7.3c-1.6,0.5-2.5,2.2-2,3.8C31.3,29.5,32.6,30.4,34,30.3z M34,26.2c0.6,0.1,1,0.6,0.9,1.1s-0.4,0.8-0.9,0.9
	c-0.6,0.1-1.1-0.3-1.1-0.9s0.3-1.1,0.9-1.1C33.8,26.2,33.9,26.2,34,26.2z"/>
</svg>
