<svg class="benefit-img" xmlns="http://www.w3.org/2000/svg" xmlns:xlink="http://www.w3.org/1999/xlink" x="0px" y="0px"
	 viewBox="0 0 64.7 66.5" style="enable-background:new 0 0 64.7 66.5;" xml:space="preserve">
<path d="M18.8,25h27.9c0.6,0,1.1-0.5,1.1-1.1s-0.5-1.1-1.1-1.1H18.8c-0.6,0-1.1,0.5-1.1,1.1S18.2,25,18.8,25z"/>
<path d="M14.8,31.6h35.7c0.6,0,1.1-0.5,1.1-1.1s-0.5-1.1-1.1-1.1H14.8c-0.6,0-1.1,0.5-1.1,1.1S14.2,31.6,14.8,31.6z"/>
<path d="M14.8,36.5h35.7c0.6,0,1.1-0.5,1.1-1.1s-0.5-1.1-1.1-1.1H14.8c-0.6,0-1.1,0.5-1.1,1.1S14.2,36.5,14.8,36.5z"/>
<path d="M61.7,6c0-1.6-1.3-2.9-3-2.9l0,0h-3.2V2.8c0-0.9-0.7-1.6-1.6-1.6l0,0h-6.5c-0.9,0-1.6,0.7-1.6,1.6v0.3H10.5
	C4.9,3.1,3,7.6,3,13.1v23.6l0,0v20.4c0,0.2,0,0.3,0,0.5c0.3,4.3,3.8,7.7,8.2,7.7h47.1c1.9,0,3.5-1.5,3.5-3.4l0,0L61.7,6L61.7,6z
	 M5.1,38.8L5.1,38.8V13.1c0-4.3,1-7.9,5.3-7.9h35.4v10.6c0,0.6,0.3,1.2,0.9,1.5c0.2,0.1,0.5,0.2,0.8,0.2s0.6-0.1,0.9-0.2l2.3-1.4
	l2.3,1.4c0.8,0.5,1.8,0.2,2.3-0.6c0.2-0.3,0.2-0.6,0.2-0.9V13c0.1-0.6-0.4-1.1-1-1.2c-0.6-0.1-1.1,0.4-1.2,1c0,0.1,0,0.2,0,0.2v2
	l-1.8-1.1c-0.5-0.3-1.2-0.3-1.8,0L47.9,15V3.4h5.3v4.5c0,0.6,0.5,1.1,1.1,1.1s1.1-0.5,1.1-1.1V5.3h3.3c0.4,0,0.8,0.3,0.8,0.8v43.2
	c0,0.4-0.3,0.8-0.8,0.8l0,0H10.4c-2,0-3.9,0.8-5.3,2.2C5.1,52.3,5.1,38.8,5.1,38.8z M59.5,56.8H16.3c-0.6,0-1.1,0.5-1.1,1.1
	s0.5,1.1,1.1,1.1h43.2v2.8c0,0.7-0.6,1.3-1.3,1.3H11.1c-3.3,0-5.9-2.6-6.1-5.8c0-1.3,0.6-2.6,1.5-3.5c1-1,2.3-1.5,3.7-1.5h48.4
	c0.3,0,0.5,0,0.8-0.1L59.5,56.8z"/>
</svg>
