<svg class="benefit-img" xmlns="http://www.w3.org/2000/svg" xmlns:xlink="http://www.w3.org/1999/xlink" x="0px" y="0px"
	 viewBox="0 0 64.7 66.5" style="enable-background:new 0 0 64.7 66.5;" xml:space="preserve">
<path d="M61.8,15H42.2V8c0-0.8-0.6-1.4-1.4-1.4H24c-0.8,0-1.4,0.6-1.4,1.4v7H2.8c-0.8,0-1.4,0.6-1.4,1.4v42.1
	c0,0.8,0.6,1.4,1.4,1.4h59c0.8,0,1.4-0.6,1.4-1.4V16.4C63.2,15.6,62.6,15,61.8,15z M60.4,17.8v39.3H49.6V17.8H60.4z M25.3,15V9.4
	h14.1V15H25.3z M46.7,17.8v39.3H18V17.8H46.7z M15.1,17.8v39.3H4.2V17.8H15.1z"/>
</svg>
