<svg class="benefit-img" xmlns="http://www.w3.org/2000/svg" xmlns:xlink="http://www.w3.org/1999/xlink" x="0px" y="0px"
	 viewBox="0 0 64.7 66.5" style="enable-background:new 0 0 64.7 66.5;" xml:space="preserve">
<path d="M54.1,1.6H10.6c-0.7,0-1.2,0.5-1.2,1.2v60.9c0,0.7,0.5,1.2,1.2,1.2h43.5c0.7,0,1.2-0.5,1.2-1.2V2.8
	C55.3,2.1,54.8,1.6,54.1,1.6L54.1,1.6z M44.2,36.8l-4.4-4.4c-0.5-0.5-1.2-0.5-1.7,0l0,0l-4.4,4.4V4h10.6L44.2,36.8z M31.9,40.9
	c0.5,0.2,1,0.1,1.3-0.3l5.7-5.7l5.7,5.7c0.3,0.4,0.9,0.5,1.3,0.3c0.5-0.2,0.8-0.7,0.8-1.2V4H53v58.5H11.8V4h19.3v35.7
	C31.1,40.3,31.4,40.7,31.9,40.9z"/>
</svg>
