<svg class="benefit-img" xmlns="http://www.w3.org/2000/svg" xmlns:xlink="http://www.w3.org/1999/xlink" x="0px" y="0px"
	 viewBox="0 0 64.7 66.5" style="enable-background:new 0 0 64.7 66.5;" xml:space="preserve">
<path d="M62.7,13.2l-9.3-9.3c-0.5-0.5-1.2-0.5-1.7,0L46,9.6c-3.6-0.3-7.1,0.9-9.6,3.4l-3.6,3.6L27.3,12l0,0
	c-2.6-1.9-5.9-2.9-9.1-2.7L13,4.1c-0.5-0.5-1.2-0.5-1.7,0L2,13.3c-0.5,0.5-0.5,1.2,0,1.7l0,0l5.7,5.7c-0.3,3.6,0.9,7.1,3.5,9.6l9,9
	l0.6,6.7l0,0c0.5,3.2,2.1,6.2,4.5,8.3v7.4c0,0.7,0.5,1.2,1.2,1.2l0,0h1.1c0.7,0,1.2-0.6,1.2-1.2c0-0.6-0.5-1.1-1-1.2v-2.4h10.6v2.4
	h-0.1c-0.7,0-1.2,0.5-1.2,1.2s0.5,1.2,1.2,1.2h1.3c0.7,0,1.2-0.5,1.2-1.2l0,0v-8c2.8-2.3,4.4-5.7,4.4-9.2v-5
	c0.1,0,9.6-10.2,9.6-10.2l0.1-0.1c1.9-2.6,2.9-5.8,2.7-9.1l5.2-5.2C63.1,14.4,63.2,13.7,62.7,13.2z M6.2,15.8l-1.7-1.7L12,6.6
	l1.7,1.7L6.2,15.8z M19,27.3c-0.5-0.5-1.2-0.5-1.7,0l0,0c-0.5,0.5-0.5,1.2,0,1.7l0,0l3.3,3.3c-0.6,0.9-0.9,2-0.8,3.1l-6.9-6.9
	c-2.1-2.1-3.1-5.2-2.7-8.2c0.1-0.4-0.1-0.8-0.3-1L8,17.5l7.5-7.5l1.4,1.4c0.3,0.3,0.6,0.4,1,0.3c2.8-0.3,5.6,0.5,7.9,2.2l5.2,4.4
	c-0.4,0.2-0.7,0.5-0.9,0.8c-0.5,0.5-0.8,1.2-0.9,1.9c-0.4-0.1-0.7-0.2-1.1-0.2c-1.9,0-3.4,1.5-3.5,3.4v6.6c-0.6-0.1-1.1,0-1.7,0.1
	L22.5,31L19,27.3z M42.6,44.5L42.6,44.5c0,3-1.5,5.9-3.9,7.7c-0.3,0.2-0.5,0.6-0.5,1v2.6H27.6v-1.9c0-0.4-0.2-0.7-0.5-1
	c-2.2-1.8-3.6-4.3-4.1-7.1l-1-10.5l0,0c-0.1-1,0.4-1.6,1.4-2c0.3-0.1,0.7-0.1,1,0V42c0,0.7,0.5,1.2,1.2,1.2s1.2-0.5,1.2-1.2l0,0
	V24.1c0.1-0.6,0.6-1,1.1-0.9s0.9,0.4,0.9,0.9v12.8c0.2,0.7,0.9,1.1,1.6,0.9c0.4-0.1,0.7-0.4,0.9-0.9V21.6c0-0.6,0.4-1.3,1.1-1.3
	s1,0.7,1,1.3V37c0.2,0.7,0.9,1.1,1.6,0.9c0.4-0.1,0.7-0.4,0.9-0.9V24.1c0-0.6,0.5-1,1-1c0.6,0,1,0.5,1,1v12.8c0.2,0.7,1,1,1.7,0.8
	c0.4-0.1,0.7-0.5,0.8-0.9V26.2c0.1-0.6,0.6-1,1.1-0.9s0.9,0.4,0.9,0.9v18.3H42.6z M55.4,18.8c-0.3,0.3-0.4,0.6-0.4,1l0,0
	c0.3,2.8-0.5,5.6-2.2,7.8L45,35.9v-3.8l4-3.9c0.5-0.5,0.5-1.2,0-1.7s-1.2-0.5-1.7,0L45,28.8v-2.6c0-0.9-0.4-1.8-1-2.4
	c-0.7-0.6-1.5-1-2.4-1c-0.4,0-0.8,0.1-1.2,0.2c-0.2-0.5-0.5-1-0.9-1.4c-0.6-0.6-1.5-0.9-2.4-0.9c-0.4,0-0.8,0.1-1.1,0.2
	c0-0.1,0-0.2-0.1-0.3c-0.2-0.8-0.7-1.6-1.4-2.1l3.7-3.7c2.1-2.1,5.2-3.1,8.1-2.7c0.4,0.1,0.7-0.1,1-0.3l1.9-1.9l7.5,7.5L55.4,18.8z
	 M58.5,15.7L51,8.2l1.7-1.7l7.5,7.5L58.5,15.7z"/>
<circle cx="32.8" cy="61.7" r="1.2"/>
</svg>
