<svg class="benefit-img" xmlns="http://www.w3.org/2000/svg" xmlns:xlink="http://www.w3.org/1999/xlink" x="0px" y="0px"
	 viewBox="0 0 64.7 66.5" style="enable-background:new 0 0 64.7 66.5;" xml:space="preserve">
<path d="M59.5,6.8h-12V3.9c0-0.9-0.7-1.6-1.6-1.6c-0.9,0-1.6,0.7-1.6,1.6l0,0v2.9H20.4V3.9C20.5,3,19.8,2.2,19,2.1
	c-0.9-0.1-1.7,0.6-1.8,1.4c0,0.1,0,0.2,0,0.3v2.9h-12c-0.9,0-1.6,0.7-1.6,1.6v54.3c0,0.9,0.7,1.6,1.6,1.6l0,0h54.3
	c0.9,0,1.6-0.7,1.6-1.6l0,0V8.4C61.1,7.5,60.3,6.8,59.5,6.8L59.5,6.8z M18.8,14.5c0.9,0,1.6-0.7,1.6-1.6l0,0V10h23.9v2.9
	c0,0.9,0.7,1.6,1.6,1.6c0.9,0,1.6-0.7,1.6-1.6V10h10.4v51.1H6.8V10h10.4v2.9C17.2,13.8,17.9,14.5,18.8,14.5z"/>
<path d="M26.7,45.7c0.6,0.6,1.6,0.6,2.3,0l18-18c0.6-0.6,0.6-1.6,0-2.2l0,0c-0.6-0.6-1.6-0.6-2.3,0L27.8,42.3l-7.9-7.9
	c-0.6-0.6-1.6-0.6-2.3,0C17,35,17,36,17.6,36.7L26.7,45.7z"/>
</svg>
