<svg class="benefit-img" xmlns="http://www.w3.org/2000/svg" xmlns:xlink="http://www.w3.org/1999/xlink" x="0px" y="0px"
	 viewBox="0 0 64.7 66.5" style="enable-background:new 0 0 64.7 66.5;" xml:space="preserve">
<path d="M56.9,0.9h-49C6,0.8,4.4,2.3,4.3,4.1v44.1c0,1.7,1.1,3.3,2.6,4.1l25.3,13.3l25.6-13.3l0,0
	c1.6-0.8,2.6-2.4,2.7-4.1V4.1C60.3,2.2,58.7,0.8,56.9,0.9z M7.8,2.6h49c0.9-0.1,1.7,0.6,1.8,1.5v35.7L32.1,54l-26-13.9v-36
	C6.1,3.2,6.9,2.6,7.8,2.6z M56.9,50.8L32.1,63.6L7.7,50.8c-1-0.5-1.6-1.4-1.7-2.5v-6.1l26,13.9l26.5-14.2v6.4
	C58.6,49.3,57.9,50.3,56.9,50.8z"/>
<path d="M21.5,37.1h21.8c0.5,0,1-0.4,1-1v-4c0-4.3-3.3-7.9-7.6-8.3l0,0c0.9-1.1,1.5-2.4,1.5-3.9v-4.3
	c0-2.6-2.1-4.6-4.6-4.6h-5.9c-0.5,0-1,0.4-1,1v8c0,1.4,0.5,2.8,1.5,3.9l0,0c-4.3,0.4-7.6,4-7.6,8.3v3.9C20.6,36.6,21,37,21.5,37.1z
	 M28.6,13h5c1.5,0,2.7,1.2,2.7,2.7v1.1h-5.9c-1,0-1.8-0.8-1.8-1.8l0,0V13z M32.4,23.8c-2.1,0-3.8-1.7-3.8-3.8v-1.7
	c0.6,0.3,1.2,0.5,1.8,0.5h5.8V20C36.2,22.1,34.5,23.8,32.4,23.8L32.4,23.8z M34.1,25.8l-1.7,1.7l-1.7-1.7H34.1z M22.4,32.2
	c0-3.2,2.4-5.9,5.5-6.3l3.7,3.7c0.2,0.2,0.4,0.3,0.7,0.3s0.5-0.1,0.7-0.3l3.7-3.7c3.2,0.4,5.5,3.1,5.5,6.3v3H22.4V32.2z"/>
</svg>
