<svg class="benefit-img" xmlns="http://www.w3.org/2000/svg" xmlns:xlink="http://www.w3.org/1999/xlink" x="0px" y="0px"
	 viewBox="0 0 64.7 66.5" style="enable-background:new 0 0 64.7 66.5;" xml:space="preserve">
<path d="M55.1,13.4h-3.9c-2.2-2.5-2.2-6.3,0-8.8h3.9c0.7-0.1,1.2-0.7,1.2-1.4c-0.1-0.6-0.5-1.1-1.2-1.2H15.3
	c-3.8,0-6.9,3.1-6.9,6.9v48.6c0,3.8,3.1,6.9,6.9,6.9h39.8c0.7,0,1.3-0.6,1.3-1.3V14.7C56.4,14,55.8,13.4,55.1,13.4L55.1,13.4z M47,9
	c0,1.5,0.3,3.1,1.1,4.4H15.3c-2.4,0-4.4-2-4.4-4.4s2-4.4,4.4-4.4l0,0h32.8C47.4,5.9,47,7.4,47,9L47,9z M53.9,15.9V62H15.3
	c-2.4,0-4.4-2-4.4-4.4l0,0V14.3c1.2,1,2.8,1.6,4.4,1.6L53.9,15.9z"/>
</svg>
