<svg class="benefit-img" xmlns="http://www.w3.org/2000/svg" xmlns:xlink="http://www.w3.org/1999/xlink" x="0px" y="0px"
	 viewBox="0 0 64.7 66.5" style="enable-background:new 0 0 64.7 66.5;" xml:space="preserve">
<path d="M32.3,2.8C15.5,2.8,1.9,16.4,1.9,33.2s13.6,30.5,30.5,30.5c16.8,0,30.5-13.6,30.5-30.5l0,0
	C62.7,16.4,49.1,2.8,32.3,2.8z M60,34.6c-0.2,4.1-1.3,8.2-3.3,11.8H43c0.7-3.9,1-7.8,1.1-11.8H60z M60,31.9H44.1
	c-0.1-4-0.4-7.9-1.1-11.8h13.7C58.7,23.7,59.8,27.7,60,31.9L60,31.9z M39.6,49.2c-0.3,1.4-0.8,2.8-1.2,4.2c-1.7,4.8-3.9,7.6-6.1,7.6
	c-2.1,0-4.4-2.8-6.1-7.6c-0.5-1.4-0.9-2.8-1.2-4.2H39.6z M22.1,49.2c0.4,1.7,0.9,3.4,1.5,5.1c0.7,2.2,1.8,4.3,3.1,6.1
	C19.8,59,13.7,55,9.6,49.2H22.1z M24.4,46.4c-0.7-3.9-1.1-7.8-1.1-11.8h18.1c0,4-0.4,7.9-1.1,11.8H24.4z M37.8,60.4
	c1.3-1.9,2.4-3.9,3.1-6.1c0.6-1.7,1.1-3.4,1.5-5.1H55C50.9,54.9,44.8,59,37.8,60.4L37.8,60.4z M9.7,17.3c4.1-5.8,10.2-9.8,17.2-11.2
	c-1.4,1.9-2.4,3.9-3.1,6.1c-0.6,1.7-1.1,3.4-1.5,5.1H9.7z M25.1,17.3c0.3-1.4,0.7-2.8,1.2-4.2c1.7-4.8,4-7.6,6.1-7.6
	s4.4,2.8,6.1,7.6c0.5,1.3,0.9,2.7,1.2,4.2H25.1z M55,17.3H42.4c-0.4-1.7-0.9-3.4-1.5-5.1c-0.6-2.2-1.7-4.2-3-6.1
	C44.8,7.5,50.9,11.5,55,17.3z M40.2,20.1c0.7,3.9,1.1,7.8,1.1,11.8h-18c0-4,0.4-7.9,1.1-11.8L40.2,20.1z M21.7,46.4H8
	c-2-3.6-3.1-7.7-3.3-11.8h16C20.7,38.6,21,42.5,21.7,46.4z M4.7,31.9C4.9,27.7,6,23.7,8,20.1h13.7c-0.7,3.9-1,7.8-1.1,11.8
	C20.6,31.9,4.7,31.9,4.7,31.9z"/>
</svg>
