<svg class="benefit-img" xmlns="http://www.w3.org/2000/svg" xmlns:xlink="http://www.w3.org/1999/xlink" x="0px" y="0px"
	 viewBox="0 0 64.7 66.5" style="enable-background:new 0 0 64.7 66.5;" xml:space="preserve">
<path d="M52,13.1c-5.2-4.2-11.6-6.6-18.2-6.9V3.3c0-0.8-0.6-1.4-1.4-1.4c-0.8,0-1.4,0.6-1.4,1.4l0,0v2.9
	c-6.7,0.3-13,2.8-18.2,7C7.2,17.5,3.8,24,3.1,31c0,0.5,0.2,1,0.6,1.3s1,0.3,1.4,0.1c0.1,0,8.8-4.4,15.7,0l0.3,0.2h0.3h0.2
	c0.3,0,0.6-0.1,0.8-0.3c2.5-1.9,5.3-3.2,8.4-3.8V59c0.1,1.6-1.1,3-2.7,3.1s-3-1.1-3.1-2.7c0-0.1,0-0.3,0-0.4c0-0.8-0.6-1.4-1.4-1.4
	s-1.4,0.6-1.4,1.4c-0.1,3.1,2.3,5.8,5.4,6c3.1,0.1,5.8-2.3,6-5.4c0-0.2,0-0.4,0-0.5V28.2c1,0.1,2.1,0.2,3.1,0.6
	c1.9,0.6,3.6,1.7,5,3.1c0.4,0.5,1.1,0.7,1.7,0.5c10-4.3,15.5-0.3,15.7-0.2c0.6,0.5,1.5,0.4,2-0.3c0.2-0.3,0.3-0.6,0.3-1
	C60.9,24,57.4,17.5,52,13.1z M27.9,9.4c-0.8,0.8-1.5,1.6-2.1,2.5c-3.5,5-5.4,10.9-5.6,17c-5.4-2.3-10.9-1.1-14.1,0
	c1.1-5.3,4-10.1,8.3-13.6C18.4,12.1,23,10.1,27.9,9.4L27.9,9.4z M41.5,27.9c-1.1-0.8-2.4-1.4-3.7-1.8c-1.5-0.5-3-0.7-4.6-0.7h-0.6
	c-0.2,0-0.4,0-0.6,0c-3.1,0.3-6.1,1.3-8.8,3c0.2-5.3,1.9-10.5,4.9-14.9c1.2-1.7,2.6-3.1,4.3-4.3c1.7,1.2,3.1,2.7,4.3,4.3
	C39.6,17.8,41.2,22.7,41.5,27.9z M50.2,15.3c4.2,3.3,7.1,8,8.2,13.3c-2.6-1-7.4-1.9-14,0.4c-0.1-6.2-2-12.2-5.6-17.3
	c-0.6-0.9-1.3-1.7-2.1-2.5C41.7,10.1,46.3,12.1,50.2,15.3z"/>
</svg>
