<svg class="benefit-img" xmlns="http://www.w3.org/2000/svg" xmlns:xlink="http://www.w3.org/1999/xlink" x="0px" y="0px"
	 viewBox="0 0 64.7 66.5" style="enable-background:new 0 0 64.7 66.5;" xml:space="preserve">
<path d="M58.3,1.1H36.8c-0.5,0-1,0.4-1,1v14.2c0,0.5,0.4,1,1,1l0,0h2.7v2.9c0,0.5,0.4,1,1,1c0.3,0,0.5-0.1,0.7-0.3
	l3.6-3.5h13.6c0.5,0,1-0.4,1-1l0,0V2C59.3,1.5,58.8,1.1,58.3,1.1z M57.3,15.3h-13c-0.3,0-0.5,0.1-0.7,0.3l-2.2,2.2v-1.5
	c0-0.5-0.4-1-1-1h-2.7V3h19.6C57.3,3,57.3,15.3,57.3,15.3z"/>
<path d="M43.1,10.4c0.9,0,1.6-0.7,1.6-1.6S44,7.2,43.1,7.2s-1.6,0.7-1.6,1.6C41.4,9.7,42.2,10.4,43.1,10.4L43.1,10.4z"
	/>
<path d="M52,10.4c0.9,0,1.6-0.7,1.6-1.6S52.9,7.2,52,7.2s-1.6,0.7-1.6,1.6C50.4,9.7,51.1,10.4,52,10.4L52,10.4z"/>
<path d="M47.5,10.4c0.9,0,1.6-0.7,1.6-1.6s-0.7-1.6-1.6-1.6c-0.9,0-1.6,0.7-1.6,1.6S46.6,10.4,47.5,10.4L47.5,10.4z"/>
<path d="M31.6,43.6c2-1.7,3.2-4.2,3.2-6.9v-8.4c0-3.6-2.9-6.5-6.5-6.5H16.8c-0.6,0-1.1,0.5-1.1,1.1v13.8
	c0,2.7,1.2,5.2,3.2,6.9C11.3,44,5.4,50.3,5.4,57.8v6.5c0,0.6,0.5,1.1,1.1,1.1h37.8c0.6,0,1.1-0.5,1.1-1.1v-6.5
	C45.4,50.1,39.3,43.8,31.6,43.6z M18,24.1h10.3c2.3,0,4.2,1.9,4.2,4.2v3.1H21.1c-1.7,0-3.1-1.4-3.2-3.2C18,28.3,18,24.1,18,24.1z
	 M18,36.7v-4c0.9,0.7,2,1,3.2,1h11.4v3c0,3.8-3.1,6.9-6.9,6.9h-0.8C21,43.6,18,40.5,18,36.7z M25.6,45.9h4.3l-4.7,4.6l-4.8-4.6H25.6
	L25.6,45.9z M43.1,63.2H7.7v-5.3c0-5.7,4.1-10.6,9.7-11.7l7.1,6.8c0.2,0.2,0.5,0.4,0.8,0.4s0.6-0.1,0.8-0.3l7.1-6.9
	c5.7,0.8,10,5.8,10,11.7L43.1,63.2z"/>
</svg>
