<svg class="benefit-img" xmlns="http://www.w3.org/2000/svg" xmlns:xlink="http://www.w3.org/1999/xlink" x="0px" y="0px"
	 viewBox="0 0 64.7 66.5" style="enable-background:new 0 0 64.7 66.5;" xml:space="preserve">
<path d="M7.2,45.3h50.3c0.9,0,1.5-0.7,1.5-1.5V14.4c0-0.9-0.7-1.5-1.5-1.5H7.2c-0.9,0-1.6,0.7-1.6,1.5l0,0v29.3
	C5.6,44.6,6.3,45.3,7.2,45.3L7.2,45.3z M8.7,42.2V15.9h47.2v26.2H8.7V42.2z"/>
<path d="M61.7,50.6H3c-0.9,0.1-1.5,0.8-1.4,1.7c0,0.7,0.6,1.3,1.4,1.4h58.7c0.9-0.1,1.5-0.8,1.4-1.7
	C63,51.2,62.4,50.6,61.7,50.6z"/>
</svg>
