<svg class="benefit-img" xmlns="http://www.w3.org/2000/svg" xmlns:xlink="http://www.w3.org/1999/xlink" x="0px" y="0px"
	 viewBox="0 0 64.7 66.5" style="enable-background:new 0 0 64.7 66.5;" xml:space="preserve">
<path d="M38.4,37.1H26.5c-0.6-0.1-1.2,0.4-1.2,1c-0.1,0.6,0.4,1.2,1,1.2c0.1,0,0.2,0,0.2,0h11.8c0.6,0.1,1.2-0.4,1.2-1
	C39.6,37.7,39.1,37.1,38.4,37.1L38.4,37.1z"/>
<path d="M26.5,31.1v-2.4H28c0.6,0,1.1-0.5,1.1-1.1s-0.5-1.1-1.1-1.1h-1.5v-1.2h1.7c0.6-0.1,1-0.6,1-1.2
	c-0.1-0.5-0.5-0.9-1-1h-2.8c-0.6,0-1.1,0.5-1.1,1.1l0,0v6.9c-0.1,0.6,0.4,1.2,1,1.2c0.6,0.1,1.2-0.4,1.2-1
	C26.5,31.3,26.5,31.2,26.5,31.1L26.5,31.1z"/>
<path d="M35.4,25.2c0.6,0.1,1.2-0.4,1.2-1s-0.4-1.2-1-1.2c-0.1,0-0.2,0-0.2,0h-2.8c-0.6,0-1.1,0.5-1.1,1.1l0,0V31
	c-0.1,0.6,0.4,1.2,1,1.2c0.6,0.1,1.2-0.4,1.2-1c0-0.1,0-0.2,0-0.2v-2.4h1.5c0.6,0,1.1-0.5,1.1-1.1s-0.5-1.1-1.1-1.1l0,0h-1.5v-1.2
	L35.4,25.2z"/>
<path d="M42.1,25.2c0.6,0,1.1-0.5,1.1-1.1S42.7,23,42.1,23h-2.9c-0.6,0-1.1,0.5-1.1,1.1V31c0,0.6,0.5,1.1,1.1,1.1h2.9
	c0.6,0,1.1-0.5,1.1-1.1s-0.5-1.1-1.1-1.1h-1.8v-1.2h1.6c0.6,0,1.1-0.5,1.1-1.1s-0.5-1.1-1.1-1.1h-1.6v-1.2L42.1,25.2z"/>
<path d="M51.6,25.9c0-1.6-1.4-2.9-3-2.9l0,0h-1.9c-0.6,0-1.1,0.5-1.1,1.1v7c0.1,0.6,0.6,1,1.2,1c0.5-0.1,0.9-0.5,1-1
	v-1.4l1.9,2.1c0.2,0.2,0.5,0.4,0.8,0.4s0.5-0.1,0.7-0.3c0.5-0.4,0.5-1.1,0.1-1.6l-1.6-1.8C50.9,28.1,51.6,27,51.6,25.9z M49.4,25.9
	c0,0.4-0.4,0.7-0.8,0.7h-0.7v-1.4h0.7C49,25.1,49.4,25.4,49.4,25.9z"/>
<path d="M17.6,23c-2.5,0-4.6,2.1-4.6,4.6s2.1,4.6,4.6,4.6s4.6-2.1,4.6-4.6l0,0C22.2,25.1,20.1,23,17.6,23z M17.6,30
	c-1.3,0-2.4-1.1-2.4-2.4s1.1-2.4,2.4-2.4s2.4,1.1,2.4,2.4S18.9,30,17.6,30z"/>
<path d="M61.2,30.6l-4.4-4.4V6.1c0-2.5-2-4.6-4.6-4.6H12.6c-2.5,0-4.6,2-4.6,4.6l0,0v19.7l-4.6,4.8v0.1
	c-0.3,0.3-0.5,0.8-0.5,1.2v28.3c0,2.6,2.1,4.7,4.7,4.7h49.7c2.6,0,4.7-2.1,4.7-4.7V31.9C61.8,31.4,61.6,31,61.2,30.6z M6.3,30.9
	L8,29.1v2.8L6.3,30.9z M56.9,31.7v-2.4l1.5,1.5L56.9,31.7z M53,59.3c0.3-0.5,0.1-1.2-0.4-1.5L34.5,47.3l16-9.3
	c0.5-0.3,0.7-1,0.4-1.5l0,0c-0.3-0.5-1-0.7-1.5-0.4l0,0l-17,9.9l0,0L10.3,33.2v-27c0-1.3,1.1-2.4,2.4-2.4h39.7
	c1.3,0,2.4,1.1,2.4,2.4V33l-2,1.2c-0.3,0.1-0.4,0.4-0.5,0.7c-0.2,0.6,0.2,1.2,0.8,1.3l0,0c0.3,0.1,0.6,0,0.8-0.1l5.7-3.4v27.6
	c0,1.3-1.1,2.4-2.4,2.4H7.5c-1.3,0-2.4-1.1-2.4-2.4V32.7l46.4,27C52,60,52.7,59.8,53,59.3z"/>
<path d="M27.1,20.4h10.7c1.2,0,2.2-1,2.2-2.2v-7C40,10,39,9,37.8,9h-2.1V8.3C35.7,7,34.6,6,33.3,6h-1.7
	c-1.3,0-2.3,1.1-2.3,2.3v0.8h-2.1c-1.2,0-2.2,1-2.2,2.2l0,0v7C24.9,19.5,25.9,20.5,27.1,20.4L27.1,20.4z M31.4,9.1V8.3
	c0-0.1,0.1-0.1,0.1-0.1l0,0h1.8c0.1,0,0.1,0.1,0.1,0.1v0.8H31.4z M27.1,18.3v-7h10.7v7H27.1z"/>
</svg>
