<svg class="benefit-img" xmlns="http://www.w3.org/2000/svg" xmlns:xlink="http://www.w3.org/1999/xlink" x="0px" y="0px"
	 viewBox="0 0 64.7 66.5" style="enable-background:new 0 0 64.7 66.5;" xml:space="preserve">
<path d="M45.5,50.5c0.2,0.2,0.5,0.4,0.9,0.4l0,0c0.3,0,0.6-0.1,0.8-0.3c0.5-0.5,0.5-1.2,0-1.7l0,0
	c-0.5-0.5-1.1-0.9-1.6-1.3c-0.5-0.3-1.2-0.2-1.6,0.3c-0.4,0.5-0.3,1.3,0.3,1.7l0,0C44.7,49.8,45.2,50.1,45.5,50.5z"/>
<path d="M49.2,52.7c-0.3-0.2-0.6-0.2-0.9-0.1c-0.3,0.1-0.6,0.3-0.7,0.6c-0.2,0.3-0.2,0.6-0.1,0.9
	c0.1,0.6,0.2,1.1,0.3,1.7v6H42V58c0-0.7-0.5-1.2-1.2-1.2s-1.2,0.5-1.2,1.2l0,0v3.8H25V58c0-0.7-0.5-1.2-1.2-1.2s-1.2,0.5-1.2,1.2
	v3.8h-5.7v-6c0-4.1,3.4-7.5,7.5-7.5h15.7c0.7,0,1.2-0.5,1.2-1.2s-0.5-1.2-1.2-1.2l0,0H24.4c-5.5,0-9.9,4.4-9.9,9.9V63
	c0,0.7,0.5,1.2,1.2,1.2h33.2c0.7,0,1.2-0.5,1.2-1.2v-7.2c0-0.8-0.1-1.6-0.3-2.3C49.7,53.1,49.5,52.9,49.2,52.7z"/>
<path d="M32.3,43.2L32.3,43.2c5.3,0,9.5-4.2,9.5-9.5s-4.2-9.5-9.5-9.5s-9.5,4.2-9.5,9.5l0,0
	C22.8,38.9,27,43.1,32.3,43.2z M25.2,33.7c0-3.9,3.2-7.1,7.2-7c3.9,0,7.1,3.2,7,7.2c0,3.9-3.2,7-7.1,7
	C28.4,40.8,25.2,37.6,25.2,33.7L25.2,33.7z"/>
<path d="M63.2,17.1c0.1-0.6-0.4-1.2-1-1.3l-4.9-0.7l-2.2-4.4c-0.1-0.2-0.3-0.3-0.4-0.4c-0.6-0.3-1.4-0.1-1.7,0.4l0,0
	l-2.2,4.4l-4.9,0.7c-0.3,0-0.5,0.2-0.7,0.3c-0.2,0.2-0.3,0.5-0.3,0.9c0,0.3,0.1,0.6,0.4,0.8l3.5,3.5L48,26.1c0,0.3,0,0.5,0.1,0.8
	s0.4,0.5,0.7,0.6c0.1,0,0.2,0,0.4,0s0.4,0,0.6-0.1l4.4-2.3l4.4,2.3c0.2,0.1,0.4,0.1,0.6,0.1h0.3l0,0c0.3-0.1,0.5-0.2,0.7-0.5
	s0.3-0.6,0.2-0.9l-0.8-4.9l3.5-3.4C63.1,17.6,63.2,17.4,63.2,17.1z M56.9,21l0.5,3.1l-2.8-1.5l-0.2-0.1l0,0h-0.3
	c-0.2,0-0.4,0.1-0.6,0.1l-2.8,1.5l0.5-3.1c0.1-0.4-0.1-0.8-0.3-1.1l-2.2-2.2l3.1-0.5c0.4-0.1,0.7-0.3,0.9-0.6l1.3-2.8l1.3,2.8
	c0.2,0.4,0.5,0.6,0.9,0.7l3.1,0.4L57.1,20C56.9,20.3,56.8,20.7,56.9,21z"/>
<path d="M27.1,13.6l-0.8,4.8c0,0.3,0,0.5,0.1,0.8s0.4,0.5,0.7,0.6c0.3,0.1,0.6,0.1,0.9,0l4.4-2.3l4.4,2.3
	c0.2,0.1,0.4,0.1,0.6,0.1h0.2c0.7-0.1,1.1-0.7,1.1-1.3v-0.1l-0.8-4.9l3.5-3.4c0.2-0.2,0.3-0.4,0.4-0.7c0.1-0.6-0.4-1.2-1-1.3
	l-4.9-0.7L33.4,3c-0.1-0.2-0.3-0.3-0.4-0.4c-0.3-0.2-0.6-0.2-0.9-0.1c-0.3,0.1-0.6,0.3-0.8,0.6l-2.2,4.4l-4.9,0.7
	c-0.3,0-0.5,0.2-0.7,0.4s-0.3,0.5-0.3,0.8s0.1,0.6,0.4,0.9L27.1,13.6z M35.1,13.4l0.5,3.1L32.9,15c-0.2-0.1-0.4-0.2-0.6-0.1
	c-0.2,0-0.4,0-0.6,0.1L29,16.4l0.5-3.1c0.1-0.4-0.1-0.8-0.3-1.1L27,10l3-0.3c0.4-0.1,0.7-0.3,0.9-0.7l1.3-2.8L33.6,9
	c0.2,0.4,0.5,0.6,0.9,0.7l3.1,0.4l-2.3,2.2C35.1,12.6,35,13,35.1,13.4z"/>
<path d="M15.2,27.5L15.2,27.5h0.5c0.7-0.1,1.1-0.7,1-1.4l-0.8-4.9l3.5-3.4c0.2-0.2,0.3-0.4,0.4-0.7
	c0.1-0.6-0.4-1.2-1-1.3l-4.9-0.7l-2.2-4.4c-0.1-0.2-0.3-0.3-0.4-0.4c-0.6-0.3-1.4-0.1-1.7,0.4l0,0l-2.2,4.4l-4.9,0.7
	c-0.3,0-0.5,0.2-0.7,0.3c-0.5,0.5-0.5,1.2,0,1.7l0,0l3.5,3.5l-0.8,4.9c-0.1,0.6,0.3,1.3,1,1.4c0.3,0,0.5,0,0.8-0.1l4.4-2.3
	L15.2,27.5L15.2,27.5z M13.4,21l0.5,3.1l-2.8-1.5H11l0,0h-0.3c-0.2,0-0.4,0.1-0.6,0.1l-2.8,1.5l0.5-3.1c0.1-0.4-0.1-0.8-0.3-1.1
	l-2.2-2.2l3.1-0.4c0.4-0.1,0.7-0.3,0.9-0.7l1.4-2.8l1.4,2.8c0.2,0.4,0.5,0.6,0.9,0.7l3.1,0.4L13.8,20C13.5,20.3,13.4,20.7,13.4,21z"
	/>
</svg>
