<svg class="benefit-img" xmlns="http://www.w3.org/2000/svg" xmlns:xlink="http://www.w3.org/1999/xlink" x="0px" y="0px"
	 viewBox="0 0 64.7 66.5" style="enable-background:new 0 0 64.7 66.5;" xml:space="preserve">
<path d="M22.2,48.3L22.2,48.3c1.2-1.3,1.9-3.1,1.9-4.9v-5.5c0-3.2-2.6-5.8-5.9-5.9h-7.6c-0.7,0-1.2,0.6-1.2,1.2v10.1
	c0,1.8,0.7,3.5,1.9,4.9l0,0c-5.4,0.5-9.6,5.1-9.6,10.5v4.9c0,0.7,0.5,1.2,1.2,1.2h27.5c0.7,0.1,1.3-0.5,1.3-1.1v-0.1v-4.9
	C31.8,53.3,27.6,48.7,22.2,48.3z M11.9,34.5h6.3c1.9,0,3.4,1.5,3.4,3.4v1.5h-7.4c-1.3,0-2.3-1-2.3-2.3l0,0
	C11.9,37.1,11.9,34.5,11.9,34.5z M16.7,48.2c-2.7,0-4.9-2.2-4.9-4.9v-2.2c0.7,0.4,1.5,0.6,2.3,0.6h7.4v1.6
	C21.5,46,19.4,48.2,16.7,48.2L16.7,48.2z M18.8,50.7l-2.2,2.2l-2.1-2.2H18.8z M29.2,62.5h-25v-3.7c0-4.1,2.9-7.5,7-8.1l4.7,4.9
	c0.5,0.5,1.3,0.5,1.8,0l4.7-4.9c4,0.6,7,4,7,8.1L29.2,62.5z"/>
<path d="M56.9,49.2c1-1,1.5-2.3,1.5-3.7v-5c0-2.7-1.4-5.3-3.6-6.9c0-0.1,0-0.2,0-0.3v-2.9c2.9-0.4,5.1-2.9,5.1-5.8V12.1
	c0-3.2-2.6-5.9-5.9-5.9H34.9c-3.2,0-5.9,2.6-5.9,5.9v12.4c0,3.2,2.6,5.9,5.9,5.9H49l1.6,1.6H50c-4.6,0-8.4,3.8-8.4,8.4v5
	c0,1.4,0.6,2.7,1.6,3.7c-3.8,1.7-6.2,5.5-6.1,9.6v4.9c0,0.7,0.6,1.2,1.2,1.2h23.5c0.7,0,1.2-0.6,1.2-1.2v-4.9
	C63,54.7,60.6,50.9,56.9,49.2z M50.4,28.3c-0.2-0.2-0.5-0.4-0.9-0.4H34.9c-1.9,0-3.4-1.5-3.4-3.4V12.1c0-1.9,1.5-3.4,3.4-3.4H54
	c1.9,0,3.4,1.5,3.4,3.4l0,0h-7.9c-0.7,0.1-1.2,0.7-1.1,1.4c0.1,0.6,0.5,1,1.1,1.1h7.8v9.8c0,1.9-1.5,3.4-3.4,3.4h-0.5
	c-0.7,0-1.2,0.6-1.2,1.2l0,0v1.1L50.4,28.3z M44.1,40.5c-0.2-3.3,2.3-6.1,5.6-6.2c3.3-0.2,6.1,2.3,6.2,5.6c0,0.2,0,0.4,0,0.6v5
	c0,1.5-1.2,2.7-2.7,2.7h-6.5c-1.5,0-2.7-1.2-2.7-2.7L44.1,40.5z M60.6,62.5h-21v-3.7c0-4.5,3.6-8.1,8.1-8.1h5c4.4,0,8,3.7,8,8.1
	L60.6,62.5z"/>
<path d="M11.9,25.7v2.9c0,0.5,0.3,0.9,0.8,1.1c0.2,0.1,0.3,0.1,0.5,0.1c0.3,0,0.6-0.1,0.9-0.4l3.8-3.8h6.5
	c0.7-0.1,1.2-0.7,1.1-1.4c-0.1-0.6-0.5-1-1.1-1.1h-7c-0.3,0-0.6,0.1-0.9,0.4l-2,2v-1.1c0-0.7-0.6-1.2-1.2-1.2l0,0h-0.5
	c-1.9,0-3.4-1.5-3.4-3.4l0,0V7.5c0-1.9,1.5-3.4,3.4-3.4l0,0h14.3c0.7,0.1,1.3-0.4,1.4-1.1s-0.4-1.3-1.1-1.4c-0.1,0-0.2,0-0.3,0H12.6
	c-3.2,0-5.9,2.6-5.9,5.9v12.4C6.8,22.9,9,25.3,11.9,25.7z"/>
<path d="M31.8,4.1c0.3,0,0.6-0.1,0.9-0.4C32.9,3.5,33,3.2,33,2.9c0.1-0.7-0.4-1.3-1.1-1.4c-0.7-0.1-1.3,0.4-1.4,1.1
	c0,0.1,0,0.2,0,0.3c0,0.3,0.1,0.6,0.4,0.9C31.1,4,31.5,4.1,31.8,4.1z"/>
<path d="M44.5,12.2c-0.3,0-0.6,0.1-0.9,0.4c-0.5,0.5-0.5,1.3,0,1.7c0.2,0.2,0.5,0.4,0.9,0.4c0.3,0,0.6-0.1,0.9-0.4
	c0.5-0.5,0.5-1.2,0-1.7l0,0C45.1,12.3,44.8,12.2,44.5,12.2z"/>
</svg>
