<svg class="benefit-img" xmlns="http://www.w3.org/2000/svg" xmlns:xlink="http://www.w3.org/1999/xlink" x="0px" y="0px"
	 viewBox="0 0 64.7 66.5" style="enable-background:new 0 0 64.7 66.5;" xml:space="preserve">
<path d="M60.5,51.8c0.7,0,1.2-0.5,1.2-1.2V37.8c0-0.7-0.6-1.2-1.2-1.2H44c-0.7,0-1.2,0.5-1.2,1.2v7.5h-2.5v-6.1
	c0-4.6-4.6-6.5-5.5-6.9l-4.9-2.8l0.1-4l19.1-22c0.3-0.4,0.4-0.9,0.2-1.4s-0.6-0.7-1.1-0.7H28.8c-0.4,0-0.8,0.2-1,0.6L17.5,18.2h-0.2
	c-0.4-0.1-0.8,0.1-1.1,0.4l-5.7,6.1l-5.2,4.4C5,29.3,4.9,29.7,4.9,30s0.1,0.7,0.4,0.9l8.6,8.6c0.5,0.5,1.2,0.5,1.7,0l0,0l0.6-0.5
	l1.7,3.5c0.1,0.2,0.2,0.3,0.3,0.4l3.5,2.9c-0.1,0.2-0.2,0.4-0.2,0.6V54H4.2c-0.3,0-0.6,0.1-0.9,0.4C3.1,54.6,2.9,55,3,55.3V64
	c0,0.7,0.5,1.2,1.2,1.2h56.2c0.3,0,0.7-0.1,0.9-0.4c0.2-0.2,0.4-0.5,0.4-0.9v-2.2c0-0.7-0.5-1.2-1.2-1.2s-1.2,0.5-1.2,1.2v0.9H5.4
	v-6.2h17.4c0.3,0,0.7-0.1,0.9-0.4c0.2-0.2,0.4-0.5,0.4-0.9v-7.5H44c0.3,0,0.6-0.1,0.9-0.4c0.2-0.2,0.4-0.6,0.3-0.9V39h14v11.5
	C59.2,51.2,59.8,51.8,60.5,51.8C60.4,51.8,60.5,51.8,60.5,51.8z M29.5,3.9h16L28.1,23.7l-2.8,1c-2.1,0.8-4.4-0.2-5.3-2.2l-1-2.1
	L29.5,3.9z M37.8,45.2H24.9l-4.9-4l-2.3-4.8c-0.2-0.4-0.5-0.6-0.9-0.7c-0.4-0.1-0.8,0.1-1.1,0.4L14.8,37L8,30.1l3.3-2.8
	c1.6,1.7,4.5,4.6,7.3,7.3c6.7,6.5,7.8,6.8,8.3,6.9c3.6,0.6,7.3,1,10.9,1.1C37.8,42.6,37.8,45.2,37.8,45.2z M37.8,40.1
	c-3.4-0.1-6.9-0.5-10.3-1c-0.2-0.1-1.6-0.8-7.4-6.4c-2.7-2.7-5.4-5.5-7.1-7.1l3.7-4l1,2.1c1.5,3.2,5.1,4.7,8.4,3.5l1.4-0.5l-0.1,3
	l-1.5,2.2c-0.4,0.6-0.3,1.3,0.3,1.7l0,0c0.2,0.1,0.5,0.2,0.7,0.2c0.4,0,0.8-0.2,1-0.5l1.1-1.6l1.7,1l-1.1,1.6
	c-0.4,0.5-0.3,1.3,0.3,1.7l0,0c0.2,0.1,0.5,0.2,0.7,0.2c0.4,0,0.8-0.2,1-0.5l1.2-1.8l0.9,0.5c0,0,3.9,1.4,3.9,4.6L37.8,40.1z"/>
</svg>
