<svg class="benefit-img" xmlns="http://www.w3.org/2000/svg" xmlns:xlink="http://www.w3.org/1999/xlink" x="0px" y="0px"
	 viewBox="0 0 64.7 66.5" style="enable-background:new 0 0 64.7 66.5;" xml:space="preserve">
<path d="M62.8,4.1c0-0.1,0-0.2-0.1-0.3c0-0.1-0.1-0.2-0.1-0.3l-0.2-0.3L62.2,3L62,2.9c-0.1,0-0.2-0.1-0.3-0.1
	s-0.2,0-0.3,0h-0.3h-0.3c-0.1,0-0.1,0-0.2,0.1l-58,33.9c-0.5,0.3-0.8,0.9-0.8,1.5s0.4,1.2,1,1.4l18.8,7.7L26,62.6l0.1,0.2
	c0,0.1,0.1,0.2,0.1,0.2l0.1,0.1l0,0l0.2,0.2h0.1l0.1,0.1h0.1h0.1H27h0.1h0.6H28l0.2-0.1l0.2-0.1c0.1,0,0.1-0.1,0.2-0.2l0.1-0.1
	l-0.3-0.3l0,0l0.4,0.2L36,53l0,0l19.8,8.1c0.8,0.3,1.7-0.1,2.1-0.9C58,60,58,59.8,58,59.6L62.8,4.1L62.8,4.1L62.8,4.1z M52.5,11.4
	L21.8,43.9L7,37.9L52.5,11.4z M59.1,10.8L55,57.5l-20.2-8.3L59.1,10.8z M51,17.6L31,49.3c-0.1,0.1-0.1,0.2-0.1,0.3l-3.1,7.7
	l-3.3-11.5L51,17.6z"/>
</svg>
