<?xml version="1.0" encoding="utf-8"?>
<!-- Generator: Adobe Illustrator 25.2.0, SVG Export Plug-In . SVG Version: 6.00 Build 0)  -->
<svg version="1.1" id="Owl" xmlns="http://www.w3.org/2000/svg" xmlns:xlink="http://www.w3.org/1999/xlink" x="0px" y="0px"
	 viewBox="0 0 22.9 30.7" style="enable-background:new 0 0 22.9 30.7;" xml:space="preserve">
<path style="fill:#FFFFFF;" d="M14.5,24.3v-2c0-0.6,0.4-1,1-1s1,0.4,1,1v2c0,0.6-0.4,1-1,1S14.5,24.9,14.5,24.3z M22.5,1.6l-1.7,5.1
	c0.5,1.1,0.7,2.4,0.7,3.7c0,1.6-0.4,3-1,4.3v14.6c0,0.6-0.4,1-1,1h-11c-3.3,0-6-2.7-6-6v-9.7c-0.6-1.3-1-2.8-1-4.3
	c0-1.3,0.3-2.5,0.7-3.7L0.5,1.5l0,0c0-0.1-0.1-0.3,0-0.4c0.1-0.5,0.6-0.9,1.2-0.8l5,1c0.1,0,0.2,0.1,0.2,0.1
	c1.4-0.7,2.9-1.1,4.6-1.1s3.2,0.4,4.6,1.1c0.1,0,0.1-0.1,0.2-0.1l5-1c0.5-0.1,1.1,0.2,1.2,0.8C22.5,1.3,22.5,1.4,22.5,1.6z M5.5,5
	C6,4.9,6.5,4.8,7,4.8c1.9,0,3.5,0.9,4.5,2.3c1-1.4,2.6-2.3,4.5-2.3c0.5,0,1,0.1,1.5,0.2c-1.5-1.7-3.6-2.7-6-2.7S7,3.4,5.5,5z M3,2.6
	l0.5,1.7l0,0C3.9,3.8,4.2,3.4,4.7,3L3,2.6z M12.3,28.3c-2.4-1.7-3.8-4.4-3.8-7.7v-0.8c-1.5-0.5-2.9-1.3-4-2.4v6.9c0,2.2,1.8,4,4,4
	H12.3z M18.5,17.4c-1.8,1.8-4.3,2.9-7,2.9c-0.3,0-0.7,0-1-0.1v0.3c0,4.5,3.2,7.5,8,7.7V17.4z M19.5,10.3c0-1.9-1.6-3.5-3.5-3.5
	s-3.5,1.6-3.5,3.5c0,0.9,0.3,1.7,0.9,2.3c0.2,0.2,0.3,0.6,0.2,0.9c0.1,0.3,0,0.7-0.3,0.9l-1.1,1.1c-0.2,0.2-0.5,0.3-0.7,0.3
	s-0.5-0.1-0.7-0.3l-1.1-1.1c-0.2-0.2-0.3-0.6-0.3-0.9c-0.1-0.3,0-0.6,0.2-0.9c0.6-0.6,0.9-1.5,0.9-2.3c0-1.9-1.6-3.5-3.5-3.5
	s-3.5,1.6-3.5,3.5c0,4.4,3.6,8,8,8S19.5,14.7,19.5,10.3z M20,2.6l-1.7,0.3c0.4,0.4,0.8,0.8,1.2,1.3l0,0L20,2.6z M17.6,10.9
	c0,0.9-0.7,1.6-1.6,1.6s-1.6-0.7-1.6-1.6s0.7-1.6,1.6-1.6S17.6,10,17.6,10.9z M8.6,10.9c0,0.9-0.7,1.6-1.6,1.6s-1.6-0.7-1.6-1.6
	S6.1,9.3,7,9.3S8.6,10,8.6,10.9z"/>
</svg>
