<svg version="1.1" id="Plane_2" xmlns="http://www.w3.org/2000/svg" xmlns:xlink="http://www.w3.org/1999/xlink" x="0px" y="0px"
	 viewBox="0 0 28.6 28.6" style="enable-background:new 0 0 28.6 28.6;" xml:space="preserve">
<path style="fill:#FFFFFF;" d="M14.5,27.9L8.6,20l-7.9-5.9c-0.3-0.2-0.4-0.6-0.4-0.9s0.3-0.7,0.6-0.8L26.6,0.5c0,0,1.1-0.5,1.6-0.1
	c0.3,0.3,0,1.2,0,1.2l0,0l0,0l0,0c0,0-11.9,25.7-12,26s-0.3,0.5-0.8,0.6C14.9,28.4,14.5,27.9,14.5,27.9z M10.6,19.4l4.5,6L24,6
	L10.6,19.4z M3.2,13.5l6,4.5L22.6,4.6L3.2,13.5z"/>
</svg>
